%
M48
M72
T01C0.0150
T02C0.0236
T03C0.0315
T04C0.0354
T05C0.0394
T06C0.0400
T07C0.0472
T08C0.0984
T09C0.1969
%
T01
X16644Y13375
X15069Y14281
X12313Y15856
X12313Y16249
X11919Y15856
X14282Y19005
X12707Y20186
X12313Y19793
X7195Y20186
X6801Y20186
X6408Y20186
X19006Y15068
X29242Y13494
X30817Y11919
T02
X26093Y9163
X26093Y8179
X22549Y8179
X22549Y9163
X14321Y13100
X12313Y14281
X39085Y7194
T03
X44695Y11525
X46073Y11525
X46073Y15462
X44695Y15462
X41604Y24517
X39478Y24517
X37352Y24517
X17195Y24517
X15069Y24517
X12943Y24517
X7195Y25108
X7195Y27076
T04
X7557Y10375
X7557Y9375
X7557Y7375
X7557Y6375
X11557Y6375
X11557Y7375
X11557Y9375
X11557Y10375
T05
X14282Y10738
X18219Y10738
X18219Y13494
X20974Y13494
X28455Y10738
X31211Y10738
X31211Y6407
X28455Y6407
X41841Y6801
X41841Y9557
X41841Y16643
X35935Y18612
X35935Y21368
X18219Y21368
X18219Y18612
X12707Y21368
X9951Y21368
X9951Y18612
X9951Y15856
X9951Y13494
X10738Y4045
T06
X6014Y9344
X6014Y10344
T07
X6801Y4045
X8179Y4045
X20581Y4045
X21959Y4045
X21762Y16742
X21762Y18907
X21762Y21072
X21762Y23238
X21762Y25403
X21762Y27568
X32786Y27568
X32786Y25403
X32786Y23238
X32786Y21072
X32786Y18907
X32786Y16742
X45384Y8179
X45384Y6801
T08
X43022Y26328
X35935Y26328
X18612Y26328
X11526Y26328
T09
X3652Y4045
X24124Y13494
X45778Y4045
X45778Y27667
X3652Y27667
M30
